<svg width="1280" height="420" viewBox="0 0 1280 420" fill="none" xmlns="http://www.w3.org/2000/svg" role="img" aria-label="Vector Index Sizer project cover">
  <rect width="1280" height="420" rx="30" fill="#18122b"/>
  <path d="M0 332C168 286 293 306 420 336C560 369 699 376 853 325C1018 270 1148 277 1280 320V420H0V332Z" fill="#7c3aed" opacity=".16"/>
  <path d="M86 84h560" stroke="#7c3aed" stroke-width="10" stroke-linecap="round"/>
  <text x="86" y="176" fill="#faf5ff" font-family="Sora, ui-sans-serif, system-ui" font-size="62" font-weight="800">Vector Index Sizer</text>
  <text x="90" y="237" fill="#e9d5ff" font-family="Sora, ui-sans-serif, system-ui" font-size="24" font-weight="500">Estimate vector index footprint and flag...</text>
  <rect x="90" y="288" width="314" height="46" rx="23" fill="#7c3aed" opacity=".20"/>
  <text x="118" y="319" fill="#faf5ff" font-family="Sora, ui-sans-serif, system-ui" font-size="18" font-weight="800" letter-spacing="1">VECTOR SEARCH SIZING</text>

  <path d="M790 250c80-97 145-145 196-145 49 0 89 44 146 145" fill="none" stroke="#7c3aed" stroke-width="16" stroke-linecap="round"/>
  <path d="M825 250c52-52 103-78 153-78 50 0 93 26 129 78" fill="none" stroke="#ec4899" stroke-width="10" stroke-linecap="round"/>
</svg>
